<svg height="486pt" viewBox="-28 0 486 486.32" width="486pt" xmlns="http://www.w3.org/2000/svg"><path d="m419.601562 104.269531v258.121094c0 22.089844-17.910156 40-40 40h-68.050781v-224.199219l-99.710937-94.261718h-99.320313v-33.929688c0-22.089844 17.910157-40 40-40h164.71875v60.988281c0 16.570313 13.433594 30 30 30h68.832031zm0 0" fill="#00efd1"/><path d="m416.070312 100.988281h-68.832031c-16.566406 0-30-13.429687-30-30v-60.988281h.773438zm0 0" fill="#fedb41"/><path d="m112.519531 83.929688h96.671875v66.679687c0 16.570313 13.429688 30 30 30h72.359375v255.710937c0 22.089844-17.910156 40-40 40h-221.390625c-22.089844 0-40-17.910156-40-40v-312.390624c0-22.089844 17.910156-40 40-40zm0 0" fill="#00acea"/><path d="m311.550781 178.191406v2.417969h-72.359375c-16.570312 0-30-13.429687-30-30v-66.679687h2.648438zm0 0" fill="#fedb41"/><path d="m324.8125 2.667969c-1.847656-1.714844-4.277344-2.667969-6.800781-2.667969h-165.492188c-27.601562.03125-49.96875 22.398438-50 50v23.929688h-52.359375c-27.601562.03125-49.96875 22.398437-50 50v312.390624c.03125 27.601563 22.398438 49.96875 50 50h221.390625c27.601563-.03125 49.96875-22.398437 50-50v-23.929687h58.050781c27.601563-.03125 49.96875-22.398437 50-50v-258.121094c0-2.78125-1.160156-5.433593-3.195312-7.324219zm2.425781 29.539062 63.351563 58.78125h-43.351563c-11.039062-.011719-19.984375-8.957031-20-20zm-55.6875 434.113281h-221.390625c-16.5625-.019531-29.980468-13.441406-30-30v-312.390624c.019532-16.558594 13.4375-29.980469 30-30h149.03125v56.679687c.023438 22.082031 17.917969 39.976563 40 40h62.359375v245.710937c-.019531 16.558594-13.441406 29.980469-30 30zm-52.359375-361.679687 69.789063 65.96875h-49.789063c-11.042968-.011719-19.988281-8.957031-20-20zm160.410156 287.75h-58.050781v-214.199219c0-2.75-1.132812-5.378906-3.128906-7.269531l-99.710937-94.261719c-1.859376-1.753906-4.316407-2.734375-6.871094-2.734375h-89.320313v-23.925781c.019531-16.5625 13.441407-29.980469 30-30h154.71875v50.988281c.027344 22.082031 17.921875 39.976563 40 40h62.363281v251.402344c-.019531 16.558594-13.441406 29.980469-30 30zm0 0" fill="#083863"/></svg>