<svg height="490pt" viewBox="0 -41 490.45044 490" width="490pt" xmlns="http://www.w3.org/2000/svg"><path d="m438.199219 14.226562v47.597657h-434.199219v-47.597657c0-5.519531 4.480469-10 10-10h414.199219c5.539062 0 10 4.480469 10 10zm0 0" fill="#1c868e"/><path d="m438.199219 14.226562v47.597657h-405.917969v-47.597657c0-5.519531 4.480469-10 10-10h385.917969c5.539062 0 10 4.480469 10 10zm0 0" fill="#40c4df"/><path d="m438.199219 61.824219v239.5c0 5.519531-4.460938 10-10 10h-414.199219c-5.519531 0-10-4.480469-10-10v-239.5zm0 0" fill="#d8d6d7"/><path d="m438.199219 61.824219v221.222656h-395.917969c-5.519531 0-10-4.480469-10-10v-211.222656zm0 0" fill="#fff"/><path d="m317.058594 186.585938c0 46.121093-32.558594 84.660156-75.957032 93.859374-6.460937 1.359376-13.140624 2.078126-20 2.078126-52.980468 0-95.941406-42.957032-95.941406-95.9375 0-53 42.960938-95.941407 95.941406-95.941407 6.859376 0 13.539063.71875 20 2.082031 43.398438 9.199219 75.957032 47.71875 75.957032 93.859376zm0 0" fill="#56c1b3"/><path d="m317.058594 186.585938c0 46.121093-32.558594 84.660156-75.957032 93.859374-43.382812-9.199218-75.941406-47.738281-75.941406-93.859374 0-46.140626 32.558594-84.660157 75.941406-93.859376 43.398438 9.199219 75.957032 47.71875 75.957032 93.859376zm0 0" fill="#7befe4"/><path d="m463.101562 262.566406c-3.640624 3.617188-3.902343 9.378906-.660156 13.378906 22.578125 27.941407 24.738282 66.941407 6.417969 96.980469-3.417969 5.640625-7.578125 10.960938-12.460937 15.839844-6.257813 6.257813-13.277344 11.339844-20.757813 15.238281-6.859375 3.582032-14.941406-1.898437-14.421875-9.617187 1.320312-19.902344-4.378906-40.179688-17.078125-56.820313-3.660156-4.820312-10.761719-5.300781-15.039063-1.019531l-.160156.160156-28.28125 28.296875c-6.300781 6.300782-17.082031 1.820313-17.082031-7.078125v-53.421875l.023437-41.296875v-28.101562c0-5.519531 4.457032-10 10-10h122.820313c8.898437 0 13.359375 10.757812 7.058594 17.058593zm0 0" fill="#d73735"/><path d="m463.101562 262.566406c-3.640624 3.617188-3.902343 9.378906-.660156 13.378906 22.578125 27.941407 24.738282 66.941407 6.417969 96.980469-1.597656 1-3.257813 1.917969-4.917969 2.800781-6.882812 3.558594-14.960937-1.921874-14.441406-9.640624 1.320312-19.902344-4.378906-40.160157-17.058594-56.800782-3.679687-4.820312-10.761718-5.300781-15.0625-1.019531l-28.277344 28.28125-.160156.160156c-6.300781 6.296875-17.0625 1.839844-17.0625-7.0625v-53.417969l.019532-41.300781v-9.820312h104.523437c8.898437 0 13.359375 10.757812 7.058594 17.058593zm0 0" fill="#f85252"/><path d="m314.28125 33.03125c0 7.179688-5.820312 13-13 13s-13-5.820312-13-13 5.820312-13 13-13 13 5.820312 13 13zm0 0" fill="#fff"/><path d="m362.554688 33.03125c0 7.179688-5.820313 13-13 13-7.179688 0-13-5.820312-13-13s5.820312-13 13-13c7.179687 0 13 5.820312 13 13zm0 0" fill="#fff"/><path d="m410.832031 33.03125c0 7.179688-5.820312 13-13 13-7.179687 0-13-5.820312-13-13s5.820313-13 13-13c7.179688 0 13 5.820312 13 13zm0 0" fill="#fff"/><g fill="#491352"><path d="m221.101562 86.644531c-55.101562 0-99.941406 44.820313-99.941406 99.941407 0 25.820312 9.839844 49.398437 25.980469 67.160156.011719.011718.019531.019531.027344.027344.027343.035156.039062.074218.066406.109374.199219.257813.417969.484376.660156.679688.003907 0 .003907.003906.003907.003906h.003906c.011718.011719.03125.015625.046875.027344 18.257812 19.625 44.285156 31.929688 73.148437 31.929688 28.878906 0 54.921875-12.296876 73.199219-31.9375.019531-.019532.042969-.039063.042969-.039063.015625-.019531.03125-.039063.050781-.058594.222656-.183593.425781-.394531.613281-.632812.027344-.039063.046875-.085938.074219-.125.015625-.015625.027344-.027344.042969-.046875 16.097656-17.738282 25.9375-41.320313 25.9375-67.097656 0-55.121094-44.839844-99.941407-99.957032-99.941407zm70.097657 40.480469c12.800781 15.082031 20.859375 34.359375 21.761719 55.457031h-36.503907c-.46875-14.960937-3.570312-29.375-8.902343-42.558593 8.402343-3.398438 16.347656-7.71875 23.636718-12.910157.003906.003907.007813.007813.007813.011719zm-161.9375 55.457031c.902343-21.082031 8.941406-40.339843 21.742187-55.417969.003906-.003906.007813-.011718.015625-.015624 7.285157 5.179687 15.234375 9.496093 23.632813 12.890624-5.332032 13.179688-8.429688 27.585938-8.894532 42.542969zm87.84375-84.597656v42.941406c-10.863281-.367187-21.515625-2.226562-31.605469-5.457031 7.476562-15.09375 18.234375-28.058594 31.605469-37.484375zm8 0c13.371093 9.425781 24.125 22.386719 31.601562 37.476563-10.085937 3.234374-20.742187 5.097656-31.601562 5.464843zm-47.207031 34.738281c-7.59375-3.046875-14.789063-6.878906-21.410157-11.484375 13.394531-13.25 30.859375-22.421875 50.304688-25.46875-12.078125 9.875-21.890625 22.53125-28.894531 36.953125zm4.289062 10.09375c11.128906 3.65625 22.914062 5.730469 34.917969 6.109375v33.65625h-43.292969c.46875-14 3.367188-27.46875 8.375-39.765625zm34.917969 47.765625v33.65625c-11.996094.382813-23.777344 2.457031-34.902344 6.117188-5.015625-12.300781-7.917969-25.769531-8.390625-39.773438zm0 41.65625v42.910157c-13.359375-9.429688-24.109375-22.378907-31.585938-37.445313 10.085938-3.234375 20.734375-5.097656 31.585938-5.464844zm8 0c10.859375.367188 21.507812 2.226563 31.589843 5.453125-7.476562 15.074219-18.226562 28.027344-31.589843 37.457032zm0-8v-33.65625h43.292969c-.46875 14-3.371094 27.464844-8.386719 39.761719-11.125-3.652344-22.90625-5.722656-34.90625-6.105469zm0-41.65625v-33.65625c12.003906-.382812 23.785156-2.460937 34.917969-6.121093 5.007812 12.300781 7.90625 25.769531 8.375 39.777343zm60.589843-61.363281c-6.613281 4.605469-13.804687 8.441406-21.386718 11.492188-7.003906-14.417969-16.8125-27.070313-28.882813-36.9375 19.421875 3.046874 36.863281 12.203124 50.253907 25.433593.003906.003907.007812.007813.015624.011719zm-156.433593 69.363281h36.496093c.46875 14.960938 3.570313 29.371094 8.910157 42.554688-8.398438 3.398437-16.347657 7.71875-23.632813 12.90625-.003906-.007813-.007812-.015625-.015625-.019531-12.820312-15.082032-20.859375-34.359376-21.757812-55.441407zm27.257812 61.363281c6.617188-4.609374 13.8125-8.449218 21.398438-11.496093 7.019531 14.433593 16.851562 27.097656 28.953125 36.976562-.003906 0-.007813 0-.011719-.003906-19.460937-3.035156-36.9375-12.214844-50.339844-25.476563zm78.820313 25.480469c12.105468-9.882812 21.941406-22.550781 28.960937-36.992187 7.59375 3.046875 14.796875 6.882812 21.417969 11.492187-13.417969 13.28125-30.898438 22.460938-50.378906 25.5zm55.878906-31.421875c-.003906.007813-.011719.011719-.015625.019532-7.292969-5.1875-15.246094-9.503907-23.652344-12.898438 5.335938-13.183594 8.4375-27.589844 8.90625-42.542969h36.503907c-.902344 21.082031-8.941407 40.34375-21.742188 55.421875zm0 0"/><path d="m486.320312 245.003906c4.078126-4.078125 5.238282-9.9375 3.019532-15.257812-2.199219-5.339844-7.160156-8.640625-12.917969-8.640625h-34.222656v-159.195313c0-.027344.007812-.050781.007812-.078125 0-.023437-.007812-.046875-.007812-.074219v-47.53125c0-7.722656-6.277344-14-14-14h-414.199219c-7.71875 0-14 6.277344-14 14v287.097657c0 7.722656 6.28125 14 14 14h325.578125v42.601562c0 5.757813 3.320313 10.71875 8.660156 12.9375 5.320313 2.203125 11.160157 1.042969 15.242188-3.039062l28.460937-28.4375c1.238282-1.242188 2.878906-1.863281 4.636719-1.742188 1.761719.121094 3.320313.941407 4.382813 2.339844 11.777343 15.441406 17.558593 34.660156 16.257812 54.121094-.339844 5.078125 2.101562 9.960937 6.359375 12.738281 2.320313 1.519531 4.941406 2.28125 7.5625 2.28125 2.160156 0 4.339844-.519531 6.359375-1.578125 8-4.160156 15.320312-9.542969 21.738281-15.960937 32.101563-32.101563 34.820313-82.902344 6.300781-118.160157-1.9375-2.421875-1.777343-5.859375.382813-8.039062zm-472.320312-236.777344h414.199219c3.320312 0 6 2.699219 6 6v43.605469h-426.199219v-43.605469c0-3.300781 2.699219-6 6-6zm0 299.097657c-3.300781 0-6-2.679688-6-6v-235.492188h426.199219v155.273438h-80.597657c-3.742187 0-7.261718 1.460937-9.902343 4.101562-2.660157 2.636719-4.097657 6.15625-4.097657 9.898438l-.023437 72.21875zm445.320312-28.859375c25.941407 32.058594 23.460938 78.261718-5.742187 107.460937-5.839844 5.859375-12.5 10.738281-19.777344 14.519531-2.699219 1.417969-4.980469.261719-5.839843-.300781-1.882813-1.21875-2.902344-3.28125-2.761719-5.5 1.421875-21.398437-4.917969-42.539062-17.878907-59.5-2.441406-3.21875-6.160156-5.21875-10.199218-5.480469-.320313-.039062-.640625-.039062-.941406-.039062-3.699219 0-7.28125 1.460938-9.898438 4.101562l-28.460938 28.4375c-1.761718 1.78125-4.199218 2.261719-6.519531 1.300782-2.320312-.960938-3.722656-3.019532-3.722656-5.539063v-42.601562l.023437-8v-72.21875c0-1.601563.617188-3.121094 1.738282-4.242188 1.140625-1.136719 2.640625-1.757812 4.261718-1.757812h122.820313c2.5 0 4.578125 1.378906 5.539063 3.699219.320312.78125.480468 1.582031.480468 2.359374 0 1.542969-.601562 3-1.78125 4.179688l-20.378906 20.382812c-5.082031 5.078126-5.480469 13.117188-.960938 18.738282zm0 0"/><path d="m301.28125 50.023438c9.378906 0 17-7.617188 17-17 0-9.359376-7.621094-17-17-17-9.382812 0-17 7.640624-17 17 0 9.382812 7.617188 17 17 17zm0-26c4.957031 0 9 4.042968 9 9 0 4.960937-4.042969 9-9 9-4.960938 0-9-4.039063-9-9 0-4.957032 4.039062-9 9-9zm0 0"/><path d="m349.558594 50.023438c9.363281 0 17-7.617188 17-17 0-9.359376-7.636719-17-17-17-9.378906 0-17 7.640624-17 17 0 9.382812 7.621094 17 17 17zm0-26c4.960937 0 9 4.042968 9 9 0 4.960937-4.039063 9-9 9-4.957032 0-9-4.039063-9-9 0-4.957032 4.042968-9 9-9zm0 0"/><path d="m397.839844 50.023438c9.359375 0 17-7.617188 17-17 0-9.359376-7.640625-17-17-17-9.378906 0-17 7.640624-17 17 0 9.382812 7.621094 17 17 17zm0-26c4.960937 0 9 4.042968 9 9 0 4.960937-4.039063 9-9 9-4.980469 0-9-4.039063-9-9 0-4.957032 4.019531-9 9-9zm0 0"/></g></svg>